<?xml version="1.0" encoding="UTF-8" standalone="no"?>
<svg
   viewBox="0 0 1024 1024"
   version="1.1"
   id="svg16"
   sodipodi:docname="1f4a9.svg"
   width="1024"
   height="1024"
   inkscape:export-filename="../Projects/emoji-keyboard/app-icon.svg"
   inkscape:export-xdpi="96"
   inkscape:export-ydpi="96"
   xmlns:inkscape="http://www.inkscape.org/namespaces/inkscape"
   xmlns:sodipodi="http://sodipodi.sourceforge.net/DTD/sodipodi-0.dtd"
   xmlns="http://www.w3.org/2000/svg"
   xmlns:svg="http://www.w3.org/2000/svg">
  <defs
     id="defs20" />
  <sodipodi:namedview
     id="namedview18"
     pagecolor="#505050"
     bordercolor="#ffffff"
     borderopacity="1"
     inkscape:showpageshadow="0"
     inkscape:pageopacity="0"
     inkscape:pagecheckerboard="1"
     inkscape:deskcolor="#505050"
     showgrid="false"
     inkscape:zoom="0.4"
     inkscape:cx="385"
     inkscape:cy="571.25"
     inkscape:window-width="1366"
     inkscape:window-height="683"
     inkscape:window-x="0"
     inkscape:window-y="0"
     inkscape:window-maximized="1"
     inkscape:current-layer="svg16" />
  <path
     id="path2"
     style="fill:#212121;fill-opacity:1;stroke-width:28.4444"
     d="M 478.20703,0.01367188 C 408.8028,41.656212 393.72885,103.55313 396.3457,156.08984 327.48192,167.80892 288.25586,182.71289 288.25586,182.71289 v 0.0566 c -38.68433,15.64441 -66.04883,53.56151 -66.04883,97.90625 0,25.00261 9.0461,47.67306 23.55274,65.76367 l -19.6836,7.33789 0.0293,0.0859 c -66.27535,24.77505 -113.06641,84.65053 -113.06641,154.70899 0,29.78124 8.53317,57.65712 23.32422,81.86328 C 56.064807,626.53146 0,704.8673 0,796.42969 c 0,125.66717 104.98892,227.55661 234.49609,227.55661 92.98462,0 186.56688,-19.9978 271.10352,-47.3613 63.80071,29.5822 161.99105,47.3613 309.81641,47.3613 115.19964,0 208.58398,-93.3843 208.58398,-208.58396 0,-61.8949 -27.10813,-117.33326 -69.94531,-155.5625 10.35375,-44.88518 6.91215,-92.89902 -13.02735,-140.68554 -19.28527,-46.2221 -52.53625,-82.77477 -93.04101,-107.32227 9.0453,-33.90565 6.65517,-70.39946 -9.2168,-106.66601 -23.92169,-54.61318 -75.66145,-91.04995 -134.0293,-101.31836 7.08266,-16.27019 9.35763,-36.66647 1.02344,-61.64063 C 677.31931,56.873959 563.54013,113.76267 478.20703,0.01367188 Z M 384,312.875 a 99.555557,128 0 0 1 99.55469,128 99.555557,128 0 0 1 -99.55469,128 99.555557,128 0 0 1 -99.55469,-128 99.555557,128 0 0 1 99.55469,-128 z m 284.44531,0 a 99.555557,128 0 0 1 99.55469,128 99.555557,128 0 0 1 -99.55469,128 99.555557,128 0 0 1 -99.55664,-128 99.555557,128 0 0 1 99.55664,-128 z m -384,369.77734 h 512 c 15.64444,0 22.72584,11.43394 15.72852,25.45704 0,0 -72.61761,145.20898 -271.72852,145.20898 -199.11091,0 -271.73047,-145.20898 -271.73047,-145.20898 -6.99732,-14.0231 0.086,-25.45704 15.73047,-25.45704 z" />
  <ellipse
     fill="#292f33"
     cx="398.2222"
     cy="440.87466"
     rx="56.888889"
     ry="71.111107"
     id="ellipse8"
     style="fill:#424242;fill-opacity:1;stroke-width:28.4444" />
  <ellipse
     fill="#292f33"
     cx="654.22223"
     cy="440.87466"
     rx="56.888889"
     ry="71.111107"
     id="ellipse10"
     style="fill:#424242;fill-opacity:1;stroke-width:28.4444" />
  <path
     fill="#f2abba"
     d="m 540.44443,739.54131 c -78.81956,0 -146.688,26.22578 -178.97244,64.17067 42.43911,27.16444 100.83555,49.60711 178.97244,49.60711 78.13689,0 136.56177,-22.44267 178.97244,-49.60711 -32.28444,-37.94489 -100.15289,-64.17067 -178.97244,-64.17067 z"
     id="path14"
     style="fill:#424242;fill-opacity:1;stroke-width:28.4444" />
</svg>
