<?xml version="1.0" encoding="UTF-8" standalone="no"?>
<svg
   xmlns:dc="http://purl.org/dc/elements/1.1/"
   xmlns:cc="http://creativecommons.org/ns#"
   xmlns:rdf="http://www.w3.org/1999/02/22-rdf-syntax-ns#"
   xmlns:svg="http://www.w3.org/2000/svg"
   xmlns="http://www.w3.org/2000/svg"
   xmlns:xlink="http://www.w3.org/1999/xlink"
   xmlns:sodipodi="http://sodipodi.sourceforge.net/DTD/sodipodi-0.dtd"
   xmlns:inkscape="http://www.inkscape.org/namespaces/inkscape"
   width="128"
   height="128"
   version="1.1"
   id="svg16"
   sodipodi:docname="icon.svg"
   inkscape:export-filename="/home/ozymandias/Projects/emoji-keyboard3/src/assets/icon-256.png"
   inkscape:export-xdpi="192"
   inkscape:export-ydpi="192"
   inkscape:version="0.92.4 (5da689c313, 2019-01-14)">
  <metadata
     id="metadata22">
    <rdf:RDF>
      <cc:Work
         rdf:about="">
        <dc:format>image/svg+xml</dc:format>
        <dc:type
           rdf:resource="http://purl.org/dc/dcmitype/StillImage" />
        <dc:title />
      </cc:Work>
    </rdf:RDF>
  </metadata>
  <defs
     id="defs20">
    <linearGradient
       inkscape:collect="always"
       id="linearGradient1083">
      <stop
         style="stop-color:#ff6f00;stop-opacity:1;"
         offset="0"
         id="stop1079" />
      <stop
         style="stop-color:#ef6c00;stop-opacity:1"
         offset="1"
         id="stop1081" />
    </linearGradient>
    <linearGradient
       inkscape:collect="always"
       id="linearGradient1057">
      <stop
         style="stop-color:#212121;stop-opacity:1;"
         offset="0"
         id="stop1053" />
      <stop
         style="stop-color:#212121;stop-opacity:0;"
         offset="1"
         id="stop1055" />
    </linearGradient>
    <linearGradient
       gradientTransform="rotate(-90,23.999998,24)"
       gradientUnits="userSpaceOnUse"
       x2="47"
       x1="1"
       id="linearGradient3764">
      <stop
         id="stop925"
         style="stop-color:#d6262e;stop-opacity:1" />
      <stop
         id="stop927"
         style="stop-color:#db363f;stop-opacity:1"
         offset="1" />
    </linearGradient>
    <linearGradient
       inkscape:collect="always"
       xlink:href="#linearGradient1057"
       id="linearGradient1059"
       x1="7.1520435"
       y1="64.002316"
       x2="120.84145"
       y2="64.002316"
       gradientUnits="userSpaceOnUse" />
    <linearGradient
       inkscape:collect="always"
       xlink:href="#linearGradient1083"
       id="linearGradient1085"
       x1="1"
       y1="24"
       x2="47"
       y2="24"
       gradientUnits="userSpaceOnUse" />
  </defs>
  <sodipodi:namedview
     pagecolor="#ffffff"
     bordercolor="#666666"
     borderopacity="1"
     objecttolerance="10"
     gridtolerance="10"
     guidetolerance="10"
     inkscape:pageopacity="0"
     inkscape:pageshadow="2"
     inkscape:window-width="1366"
     inkscape:window-height="683"
     id="namedview18"
     showgrid="false"
     inkscape:zoom="1.84375"
     inkscape:cx="68.338983"
     inkscape:cy="44.474576"
     inkscape:window-x="0"
     inkscape:window-y="0"
     inkscape:window-maximized="1"
     inkscape:current-layer="svg16"
     inkscape:pagecheckerboard="true" />
  <path
     d="M 87.777885 49.877619 A 15.5 16.610001 6.35 0 1 101.3457 68.10004 A 15.5 16.610001 6.35 0 1 84.103698 82.893809 A 15.5 16.610001 6.35 0 1 70.535887 64.671388 A 15.5 16.610001 6.35 0 1 87.777885 49.877619 z "
     style="fill:none"
     id="ellipse4" />
  <g
     id="g1007"
     transform="matrix(2.7079703,0,0,2.7194374,-2.3425635,-2.3550304)">
    <g
       id="g938">
      <path
         id="path932"
         style="opacity:0.05"
         d="m 36.31,5 c 5.859,4.062 9.688,10.831 9.688,18.5 0,12.426 -10.07,22.5 -22.5,22.5 -7.669,0 -14.438,-3.828 -18.5,-9.688 1.037,1.822 2.306,3.499 3.781,4.969 4.085,3.712 9.514,5.969 15.469,5.969 12.703,0 23,-10.298 23,-23 0,-5.954 -2.256,-11.384 -5.969,-15.469 C 39.81,7.306 38.132,6.037 36.31,5 Z m 4.969,3.781 c 3.854,4.113 6.219,9.637 6.219,15.719 0,12.703 -10.297,23 -23,23 -6.081,0 -11.606,-2.364 -15.719,-6.219 4.16,4.144 9.883,6.719 16.219,6.719 12.703,0 23,-10.298 23,-23 0,-6.335 -2.575,-12.06 -6.719,-16.219 z"
         inkscape:connector-curvature="0" />
      <path
         id="path934"
         style="opacity:0.1"
         d="m 41.28,8.781 c 3.712,4.085 5.969,9.514 5.969,15.469 0,12.703 -10.297,23 -23,23 -5.954,0 -11.384,-2.256 -15.469,-5.969 4.113,3.854 9.637,6.219 15.719,6.219 12.703,0 23,-10.298 23,-23 0,-6.081 -2.364,-11.606 -6.219,-15.719 z"
         inkscape:connector-curvature="0" />
      <path
         id="path936"
         style="opacity:0.2"
         d="M 31.25,2.375 C 39.865,5.529 46,13.792 46,23.505 c 0,12.426 -10.07,22.5 -22.5,22.5 -9.708,0 -17.971,-6.135 -21.12,-14.75 a 23,23 0 0 0 44.875,-7 23,23 0 0 0 -16,-21.875 z"
         inkscape:connector-curvature="0" />
    </g>
    <g
       id="g942">
      <path
         id="path940"
         style="fill:url(#linearGradient1085);fill-opacity:1"
         d="M 24,1 C 36.703,1 47,11.297 47,24 47,36.703 36.703,47 24,47 11.297,47 1,36.703 1,24 1,11.297 11.297,1 24,1 Z"
         inkscape:connector-curvature="0"
         inkscape:export-xdpi="49.115021"
         inkscape:export-ydpi="49.115021" />
    </g>
    <g
       id="g958">
      <g
         id="g956">
        <g
           id="g954"
           transform="translate(1,1)">
          <g
             id="g952"
             style="opacity:0.1">
            <!-- color: #db363f -->
            <g
               id="g950" />
          </g>
        </g>
      </g>
    </g>
    <g
       id="g970">
      <g
         id="g968">
        <!-- color: #db363f -->
        <g
           id="g966" />
      </g>
    </g>
    <g
       id="g974">
      <path
         id="path972"
         style="opacity:0.1"
         d="m 40.03,7.531 c 3.712,4.084 5.969,9.514 5.969,15.469 0,12.703 -10.297,23 -23,23 C 17.045,46 11.615,43.744 7.53,40.031 11.708,44.322 17.54,47 23.999,47 c 12.703,0 23,-10.298 23,-23 0,-6.462 -2.677,-12.291 -6.969,-16.469 z"
         inkscape:connector-curvature="0" />
    </g>
  </g>
  <g
     transform="matrix(0.85688037,0,0,0.89508313,11.054599,5.0019634)"
     id="g1049">
    <path
       inkscape:connector-curvature="0"
       d="m 49.02,65.13 c 0.38,3.29 -2.01,6.3 -5.34,6.72 -3.34,0.43 -6.36,-1.9 -6.74,-5.18 -0.4,-3.29 1.99,-6.3 5.33,-6.73 3.33,-0.42 6.36,1.91 6.75,5.19 m 43.61,1.23 c -0.23,3.3 -3.14,5.82 -6.49,5.62 -3.36,-0.19 -5.9,-3.04 -5.67,-6.34 0.22,-3.31 3.12,-5.82 6.48,-5.62 3.36,0.19 5.91,3.04 5.68,6.34 M 59.052734,4.5566406 c -1.203125,-0.068945 -2.890625,0.7300782 -4.671875,1.9238282 -3.33,2.22 -10.230625,9.3502342 -12.890625,16.4902342 -2.03,5.47 -2.079296,10.208672 -1.279296,13.888672 -3.29,0.55 -5.760469,1.660859 -6.230469,1.880859 -0.16,0.05 -0.320235,0.09992 -0.490235,0.169922 -3.01,1.24 -9.429765,7.01961 -10.009765,15.84961 -0.2,3.14 0.209219,6.309765 1.199219,9.259765 -3.940001,1.1 -6.219766,2.540313 -6.259766,2.570313 -2,0.75 -5.180391,2.950859 -6.150391,4.130859 -1.97,2.38 -3.3403904,5.209688 -4.1503904,8.179688 -1.77,6.46 -1.1185156,13.809531 2.0214844,19.769531 1.74,3.309998 4.120234,6.829528 6.740234,9.519528 8.55,8.79 23.308985,12.11125 34.958985,14.03125 14.19,2.34 29.050078,1.5193 42.330078,-3.9707 19.919998,-8.22 25.219998,-21.439922 25.999998,-25.169922 1.75,-8.31 -0.3693,-16.079219 -1.2793,-17.949219 -1.31,-2.72 -3.4607,-5.530078 -6.9707,-7.330078 a 22.55,22.55 0 0 0 -6.00976,-2.630859 c 1.53,-5.6 -0.63946,-10.060625 -3.68946,-13.390625 -4.529997,-4.88 -9.271481,-5.589844 -9.271481,-5.589844 h -0.0098 c 1.56,-3.03 2.151328,-6.540234 1.361328,-9.990234 -1,-4.26 -3.290547,-6.938516 -6.310547,-8.728516 -3.09,-1.83 -6.910078,-2.73164 -10.830078,-3.431641 -1.88,-0.339999 -9.809609,-1.45 -13.099609,-6 C 61.410513,14.349063 61.329341,7.7107031 60.609341,5.7207031 60.320591,4.9519531 59.774575,4.5980078 59.0527,4.5566406 Z M 43.34375,88.666016 c 1.579395,-0.03135 3.253125,0.476171 4.796875,0.794922 6.9,1.42 12.949375,1.478515 15.859375,1.478515 2.91,0 8.959375,-0.05851 15.859375,-1.478515 2.47,-0.51 5.270234,-1.5 7.490234,0 2.82,1.909999 0.740313,8.739374 -3.679687,13.359372 -2.69,2.79 -9.080156,8.20899 -19.660156,8.20899 -10.59,0 -16.980157,-5.41899 -19.660157,-8.20899 -4.44,-4.619997 -6.519218,-11.459372 -3.699218,-13.359372 0.8325,-0.5625 1.745722,-0.776114 2.693359,-0.794922 z"
       style="fill:#424242;fill-opacity:1;opacity:0.15"
       id="path1047" />
  </g>
  <g
     id="g12"
     transform="matrix(0.85688037,0,0,0.89508313,5.9049538,2.6471259)">
    <path
       id="path10"
       style="fill:#ff4081;fill-opacity:1"
       d="m 49.02,65.13 c 0.38,3.29 -2.01,6.3 -5.34,6.72 -3.34,0.43 -6.36,-1.9 -6.74,-5.18 -0.4,-3.29 1.99,-6.3 5.33,-6.73 3.33,-0.42 6.36,1.91 6.75,5.19 m 43.61,1.23 c -0.23,3.3 -3.14,5.82 -6.49,5.62 -3.36,-0.19 -5.9,-3.04 -5.67,-6.34 0.22,-3.31 3.12,-5.82 6.48,-5.62 3.36,0.19 5.91,3.04 5.68,6.34 M 59.052734,4.5566406 c -1.203125,-0.068945 -2.890625,0.7300782 -4.671875,1.9238282 -3.33,2.22 -10.230625,9.3502342 -12.890625,16.4902342 -2.03,5.47 -2.079296,10.208672 -1.279296,13.888672 -3.29,0.55 -5.760469,1.660859 -6.230469,1.880859 -0.16,0.05 -0.320235,0.09992 -0.490235,0.169922 -3.01,1.24 -9.429765,7.01961 -10.009765,15.84961 -0.2,3.14 0.209219,6.309765 1.199219,9.259765 -3.940001,1.1 -6.219766,2.540313 -6.259766,2.570313 -2,0.75 -5.180391,2.950859 -6.150391,4.130859 -1.97,2.38 -3.3403904,5.209688 -4.1503904,8.179688 -1.77,6.46 -1.1185156,13.809531 2.0214844,19.769531 1.74,3.309998 4.120234,6.829528 6.740234,9.519528 8.55,8.79 23.308985,12.11125 34.958985,14.03125 14.19,2.34 29.050078,1.5193 42.330078,-3.9707 19.919998,-8.22 25.219998,-21.439922 25.999998,-25.169922 1.75,-8.31 -0.3693,-16.079219 -1.2793,-17.949219 -1.31,-2.72 -3.4607,-5.530078 -6.9707,-7.330078 a 22.55,22.55 0 0 0 -6.00976,-2.630859 c 1.53,-5.6 -0.63946,-10.060625 -3.68946,-13.390625 -4.529997,-4.88 -9.271481,-5.589844 -9.271481,-5.589844 h -0.0098 c 1.56,-3.03 2.151328,-6.540234 1.361328,-9.990234 -1,-4.26 -3.290547,-6.938516 -6.310547,-8.728516 -3.09,-1.83 -6.910078,-2.73164 -10.830078,-3.431641 -1.88,-0.339999 -9.809609,-1.45 -13.099609,-6 C 61.410513,14.349063 61.329341,7.7107031 60.609341,5.7207031 60.320591,4.9519531 59.774575,4.5980078 59.0527,4.5566406 Z M 43.34375,88.666016 c 1.579395,-0.03135 3.253125,0.476171 4.796875,0.794922 6.9,1.42 12.949375,1.478515 15.859375,1.478515 2.91,0 8.959375,-0.05851 15.859375,-1.478515 2.47,-0.51 5.270234,-1.5 7.490234,0 2.82,1.909999 0.740313,8.739374 -3.679687,13.359372 -2.69,2.79 -9.080156,8.20899 -19.660156,8.20899 -10.59,0 -16.980157,-5.41899 -19.660157,-8.20899 -4.44,-4.619997 -6.519218,-11.459372 -3.699218,-13.359372 0.8325,-0.5625 1.745722,-0.776114 2.693359,-0.794922 z"
       inkscape:connector-curvature="0" />
    <path
       id="path1087"
       style="fill:#ffffff;fill-opacity:1;opacity:0.35"
       d="m 49.02,65.13 c 0.38,3.29 -2.01,6.3 -5.34,6.72 -3.34,0.43 -6.36,-1.9 -6.74,-5.18 -0.4,-3.29 1.99,-6.3 5.33,-6.73 3.33,-0.42 6.36,1.91 6.75,5.19 m 43.61,1.23 c -0.23,3.3 -3.14,5.82 -6.49,5.62 -3.36,-0.19 -5.9,-3.04 -5.67,-6.34 0.22,-3.31 3.12,-5.82 6.48,-5.62 3.36,0.19 5.91,3.04 5.68,6.34 M 59.052734,4.5566406 c -1.203125,-0.068945 -2.890625,0.7300782 -4.671875,1.9238282 -3.33,2.22 -10.230625,9.3502342 -12.890625,16.4902342 -2.03,5.47 -2.079296,10.208672 -1.279296,13.888672 -3.29,0.55 -5.760469,1.660859 -6.230469,1.880859 -0.16,0.05 -0.320235,0.09992 -0.490235,0.169922 -3.01,1.24 -9.429765,7.01961 -10.009765,15.84961 -0.2,3.14 0.209219,6.309765 1.199219,9.259765 -3.940001,1.1 -6.219766,2.540313 -6.259766,2.570313 -2,0.75 -5.180391,2.950859 -6.150391,4.130859 -1.97,2.38 -3.3403904,5.209688 -4.1503904,8.179688 -1.77,6.46 -1.1185156,13.809531 2.0214844,19.769531 1.74,3.309998 4.120234,6.829528 6.740234,9.519528 8.55,8.79 23.308985,12.11125 34.958985,14.03125 14.19,2.34 29.050078,1.5193 42.330078,-3.9707 19.919998,-8.22 25.219998,-21.439922 25.999998,-25.169922 1.75,-8.31 -0.3693,-16.079219 -1.2793,-17.949219 -1.31,-2.72 -3.4607,-5.530078 -6.9707,-7.330078 a 22.55,22.55 0 0 0 -6.00976,-2.630859 c 1.53,-5.6 -0.63946,-10.060625 -3.68946,-13.390625 -4.529997,-4.88 -9.271481,-5.589844 -9.271481,-5.589844 h -0.0098 c 1.56,-3.03 2.151328,-6.540234 1.361328,-9.990234 -1,-4.26 -3.290547,-6.938516 -6.310547,-8.728516 -3.09,-1.83 -6.910078,-2.73164 -10.830078,-3.431641 -1.88,-0.339999 -9.809609,-1.45 -13.099609,-6 C 61.410513,14.349063 61.329341,7.7107031 60.609341,5.7207031 60.320591,4.9519531 59.774575,4.5980078 59.0527,4.5566406 Z M 43.34375,88.666016 c 1.579395,-0.03135 3.253125,0.476171 4.796875,0.794922 6.9,1.42 12.949375,1.478515 15.859375,1.478515 2.91,0 8.959375,-0.05851 15.859375,-1.478515 2.47,-0.51 5.270234,-1.5 7.490234,0 2.82,1.909999 0.740313,8.739374 -3.679687,13.359372 -2.69,2.79 -9.080156,8.20899 -19.660156,8.20899 -10.59,0 -16.980157,-5.41899 -19.660157,-8.20899 -4.44,-4.619997 -6.519218,-11.459372 -3.699218,-13.359372 0.8325,-0.5625 1.745722,-0.776114 2.693359,-0.794922 z"
       inkscape:connector-curvature="0" />
    <path
       inkscape:connector-curvature="0"
       d="m 49.02,65.13 c 0.38,3.29 -2.01,6.3 -5.34,6.72 -3.34,0.43 -6.36,-1.9 -6.74,-5.18 -0.4,-3.29 1.99,-6.3 5.33,-6.73 3.33,-0.42 6.36,1.91 6.75,5.19 m 43.61,1.23 c -0.23,3.3 -3.14,5.82 -6.49,5.62 -3.36,-0.19 -5.9,-3.04 -5.67,-6.34 0.22,-3.31 3.12,-5.82 6.48,-5.62 3.36,0.19 5.91,3.04 5.68,6.34 M 59.052734,4.5566406 c -1.203125,-0.068945 -2.890625,0.7300782 -4.671875,1.9238282 -3.33,2.22 -10.230625,9.3502342 -12.890625,16.4902342 -2.03,5.47 -2.079296,10.208672 -1.279296,13.888672 -3.29,0.55 -5.760469,1.660859 -6.230469,1.880859 -0.16,0.05 -0.320235,0.09992 -0.490235,0.169922 -3.01,1.24 -9.429765,7.01961 -10.009765,15.84961 -0.2,3.14 0.209219,6.309765 1.199219,9.259765 -3.940001,1.1 -6.219766,2.540313 -6.259766,2.570313 -2,0.75 -5.180391,2.950859 -6.150391,4.130859 -1.97,2.38 -3.3403904,5.209688 -4.1503904,8.179688 -1.77,6.46 -1.1185156,13.809531 2.0214844,19.769531 1.74,3.309998 4.120234,6.829528 6.740234,9.519528 8.55,8.79 23.308985,12.11125 34.958985,14.03125 14.19,2.34 29.050078,1.5193 42.330078,-3.9707 19.919998,-8.22 25.219998,-21.439922 25.999998,-25.169922 1.75,-8.31 -0.3693,-16.079219 -1.2793,-17.949219 -1.31,-2.72 -3.4607,-5.530078 -6.9707,-7.330078 a 22.55,22.55 0 0 0 -6.00976,-2.630859 c 1.53,-5.6 -0.63946,-10.060625 -3.68946,-13.390625 -4.529997,-4.88 -9.271481,-5.589844 -9.271481,-5.589844 h -0.0098 c 1.56,-3.03 2.151328,-6.540234 1.361328,-9.990234 -1,-4.26 -3.290547,-6.938516 -6.310547,-8.728516 -3.09,-1.83 -6.910078,-2.73164 -10.830078,-3.431641 -1.88,-0.339999 -9.809609,-1.45 -13.099609,-6 C 61.410513,14.349063 61.329341,7.7107031 60.609341,5.7207031 60.320591,4.9519531 59.774575,4.5980078 59.0527,4.5566406 Z M 43.34375,88.666016 c 1.579395,-0.03135 3.253125,0.476171 4.796875,0.794922 6.9,1.42 12.949375,1.478515 15.859375,1.478515 2.91,0 8.959375,-0.05851 15.859375,-1.478515 2.47,-0.51 5.270234,-1.5 7.490234,0 2.82,1.909999 0.740313,8.739374 -3.679687,13.359372 -2.69,2.79 -9.080156,8.20899 -19.660156,8.20899 -10.59,0 -16.980157,-5.41899 -19.660157,-8.20899 -4.44,-4.619997 -6.519218,-11.459372 -3.699218,-13.359372 0.8325,-0.5625 1.745722,-0.776114 2.693359,-0.794922 z"
       style="fill:url(#linearGradient1059);fill-opacity:1;opacity:0.25"
       id="path1051" />
  </g>
</svg>
